<mxfile host="Electron" modified="2024-05-12T07:06:56.440Z" agent="Mozilla/5.0 (Windows NT 10.0; Win64; x64) AppleWebKit/537.36 (KHTML, like Gecko) draw.io/24.2.5 Chrome/120.0.6099.109 Electron/28.1.0 Safari/537.36" etag="IA23TFSYzu_JL1VY0AfC" version="24.2.5" type="device">
  <diagram name="第 1 页" id="662LEACciJluHkaIU2vJ">
    <mxGraphModel dx="1195" dy="697" grid="1" gridSize="10" guides="1" tooltips="1" connect="1" arrows="1" fold="1" page="1" pageScale="1" pageWidth="1169" pageHeight="1654" math="0" shadow="0">
      <root>
        <mxCell id="0" />
        <mxCell id="1" parent="0" />
        <mxCell id="3TCEPhrrjdP-cNLg4gWj-31" value="&lt;font style=&quot;font-size: 16px;&quot; face=&quot;Times New Roman&quot;&gt;AST Visitor&lt;/font&gt;" style="edgeStyle=orthogonalEdgeStyle;rounded=0;orthogonalLoop=1;jettySize=auto;html=1;exitX=0.5;exitY=1;exitDx=0;exitDy=0;entryX=0.5;entryY=0;entryDx=0;entryDy=0;" edge="1" parent="1" source="3TCEPhrrjdP-cNLg4gWj-11" target="3TCEPhrrjdP-cNLg4gWj-28">
          <mxGeometry relative="1" as="geometry" />
        </mxCell>
        <mxCell id="3TCEPhrrjdP-cNLg4gWj-11" value="&lt;font style=&quot;font-size: 20px;&quot; face=&quot;Times New Roman&quot;&gt;Python&lt;/font&gt;" style="text;html=1;align=center;verticalAlign=middle;whiteSpace=wrap;rounded=0;strokeColor=default;" vertex="1" parent="1">
          <mxGeometry x="815" y="200" width="60" height="37" as="geometry" />
        </mxCell>
        <mxCell id="3TCEPhrrjdP-cNLg4gWj-17" value="@jit&lt;br&gt;def add(X, Y, Z, N):&lt;br&gt;&amp;nbsp; &amp;nbsp; pid = program_id(0)&lt;br&gt;&amp;nbsp; &amp;nbsp; idx= pid * 512 + arange(512)&lt;br&gt;&amp;nbsp; &amp;nbsp; mask = idx &amp;lt; N&lt;br&gt;&amp;nbsp; &amp;nbsp; x = load(X + idx, mask=mask)&lt;br&gt;&amp;nbsp; &amp;nbsp; y = load(Y + idx, mask=mask)&lt;br&gt;&amp;nbsp; &amp;nbsp; store(Z + idx, x + y, mask=mask)" style="text;whiteSpace=wrap;html=1;dashed=1;strokeColor=default;" vertex="1" parent="1">
          <mxGeometry x="459" y="200" width="220" height="130" as="geometry" />
        </mxCell>
        <mxCell id="3TCEPhrrjdP-cNLg4gWj-26" value="" style="shape=manualInput;whiteSpace=wrap;html=1;dashed=0;size=93;direction=west;fillColor=default;gradientColor=#d6d6d6;strokeColor=none;gradientDirection=east;" vertex="1" parent="1">
          <mxGeometry x="680" y="200" width="134" height="130" as="geometry" />
        </mxCell>
        <mxCell id="3TCEPhrrjdP-cNLg4gWj-33" value="&lt;font style=&quot;font-size: 16px;&quot; face=&quot;Times New Roman&quot;&gt;Triton&lt;/font&gt; &lt;font style=&quot;font-size: 16px;&quot; face=&quot;宋体&quot;&gt;编译器&lt;/font&gt;" style="edgeStyle=orthogonalEdgeStyle;rounded=0;orthogonalLoop=1;jettySize=auto;html=1;exitX=0.5;exitY=1;exitDx=0;exitDy=0;entryX=0.5;entryY=0;entryDx=0;entryDy=0;" edge="1" parent="1" source="3TCEPhrrjdP-cNLg4gWj-28" target="3TCEPhrrjdP-cNLg4gWj-32">
          <mxGeometry relative="1" as="geometry" />
        </mxCell>
        <mxCell id="3TCEPhrrjdP-cNLg4gWj-28" value="&lt;font style=&quot;font-size: 20px;&quot; face=&quot;Times New Roman&quot;&gt;Triton-IR&lt;/font&gt;" style="text;html=1;align=center;verticalAlign=middle;whiteSpace=wrap;rounded=0;strokeColor=default;" vertex="1" parent="1">
          <mxGeometry x="802.5" y="343" width="85" height="44" as="geometry" />
        </mxCell>
        <mxCell id="3TCEPhrrjdP-cNLg4gWj-29" value="def void add(i32* X .aigned(16) ,&lt;div&gt;&amp;nbsp; &amp;nbsp; &amp;nbsp; i32* Y .aigned(16)&amp;nbsp;,&lt;/div&gt;&lt;div&gt;&amp;nbsp; &amp;nbsp; &amp;nbsp; i32* Z .aigned(16) ,&lt;/div&gt;&lt;div&gt;&amp;nbsp; &amp;nbsp; &amp;nbsp; i32 N .multipleof(2) )&lt;div&gt;{&lt;/div&gt;&lt;div&gt;entry:&lt;/div&gt;&lt;div&gt;&amp;nbsp; &amp;nbsp; %0 = get_program_id[0] i32;&lt;/div&gt;&lt;div&gt;&amp;nbsp; &amp;nbsp; %1 = mul i32 %0, 512;&lt;/div&gt;&lt;div&gt;&amp;nbsp; &amp;nbsp; ......&lt;/div&gt;&lt;div&gt;}&lt;/div&gt;&lt;/div&gt;" style="text;whiteSpace=wrap;html=1;dashed=1;strokeColor=default;" vertex="1" parent="1">
          <mxGeometry x="459" y="343" width="220" height="164" as="geometry" />
        </mxCell>
        <mxCell id="3TCEPhrrjdP-cNLg4gWj-30" value="" style="shape=manualInput;whiteSpace=wrap;html=1;dashed=0;size=120;direction=west;fillColor=#f5f5f5;gradientColor=#d6d6d6;strokeColor=none;gradientDirection=east;" vertex="1" parent="1">
          <mxGeometry x="680" y="343" width="122" height="164" as="geometry" />
        </mxCell>
        <mxCell id="3TCEPhrrjdP-cNLg4gWj-38" value="&lt;font style=&quot;font-size: 16px;&quot; face=&quot;Times New Roman&quot;&gt;LibLLVM&lt;/font&gt;" style="edgeStyle=orthogonalEdgeStyle;rounded=0;orthogonalLoop=1;jettySize=auto;html=1;exitX=1;exitY=0.5;exitDx=0;exitDy=0;entryX=0;entryY=0.5;entryDx=0;entryDy=0;" edge="1" parent="1" source="3TCEPhrrjdP-cNLg4gWj-32" target="3TCEPhrrjdP-cNLg4gWj-35">
          <mxGeometry relative="1" as="geometry" />
        </mxCell>
        <mxCell id="3TCEPhrrjdP-cNLg4gWj-32" value="&lt;font style=&quot;font-size: 20px;&quot; face=&quot;Times New Roman&quot;&gt;LLVM-IR&lt;/font&gt;" style="text;html=1;align=center;verticalAlign=middle;whiteSpace=wrap;rounded=0;strokeColor=default;" vertex="1" parent="1">
          <mxGeometry x="802" y="480" width="85" height="44" as="geometry" />
        </mxCell>
        <mxCell id="3TCEPhrrjdP-cNLg4gWj-35" value="&lt;font style=&quot;font-size: 20px;&quot; face=&quot;Times New Roman&quot;&gt;PTX&lt;/font&gt;" style="text;html=1;align=center;verticalAlign=middle;whiteSpace=wrap;rounded=0;strokeColor=default;" vertex="1" parent="1">
          <mxGeometry x="1053" y="483.5" width="67" height="37" as="geometry" />
        </mxCell>
        <mxCell id="3TCEPhrrjdP-cNLg4gWj-36" value=".visible .entry add(&lt;div&gt;&amp;nbsp; &amp;nbsp; &amp;nbsp;.param .u64 add_param_0,&lt;/div&gt;&lt;div&gt;&amp;nbsp; &amp;nbsp; &amp;nbsp;.param .u64 add_param_1,&lt;/div&gt;&lt;div&gt;&amp;nbsp; &amp;nbsp; &amp;nbsp;.param .u64 add_param_2,&lt;br&gt;&lt;/div&gt;&lt;div&gt;&amp;nbsp; &amp;nbsp; &amp;nbsp;.param .u64 add_param_3,&lt;br&gt;&lt;/div&gt;&lt;div&gt;)&lt;/div&gt;&lt;div&gt;.maxntid 128, 1, 1&lt;/div&gt;&lt;div&gt;{&lt;/div&gt;&lt;div&gt;&amp;nbsp; &amp;nbsp; &amp;nbsp;.reg .pred&amp;nbsp; &amp;nbsp; &amp;nbsp; %p&amp;lt;4&amp;gt;;&lt;/div&gt;&lt;div&gt;&amp;nbsp; &amp;nbsp; &amp;nbsp;.reg .b32&amp;nbsp; &amp;nbsp; &amp;nbsp; %r&amp;lt;18&amp;gt;;&lt;/div&gt;&lt;div&gt;&amp;nbsp; &amp;nbsp; &amp;nbsp;......&lt;/div&gt;&lt;div&gt;LBB0_2:&lt;/div&gt;&lt;div&gt;&amp;nbsp; &amp;nbsp; &amp;nbsp;ret;&lt;/div&gt;&lt;div&gt;}&lt;/div&gt;" style="text;whiteSpace=wrap;html=1;dashed=1;strokeColor=default;" vertex="1" parent="1">
          <mxGeometry x="920" y="110" width="200" height="220" as="geometry" />
        </mxCell>
        <mxCell id="3TCEPhrrjdP-cNLg4gWj-37" value="" style="shape=manualInput;whiteSpace=wrap;html=1;dashed=0;size=133;direction=north;fillColor=#f5f5f5;gradientColor=#d6d6d6;strokeColor=none;gradientDirection=east;" vertex="1" parent="1">
          <mxGeometry x="920" y="331" width="200" height="152" as="geometry" />
        </mxCell>
      </root>
    </mxGraphModel>
  </diagram>
</mxfile>
